<svg xmlns="http://www.w3.org/2000/svg" xmlns:xlink="http://www.w3.org/1999/xlink" width="500" zoomAndPan="magnify" viewBox="0 0 375 374.999991" height="500" preserveAspectRatio="xMidYMid meet" version="1.0"><defs><clipPath id="3c6b697f51"><path d="M 0 40 L 148 40 L 148 219 L 0 219 Z M 0 40 " clip-rule="nonzero"/></clipPath><clipPath id="32ce207234"><path d="M 84.304688 11.085938 L 162.738281 67.417969 L 50.074219 224.28125 L -28.359375 167.949219 Z M 84.304688 11.085938 " clip-rule="nonzero"/></clipPath><clipPath id="64a32824a3"><path d="M 84.304688 11.085938 L 162.738281 67.417969 L 50.074219 224.28125 L -28.359375 167.949219 Z M 84.304688 11.085938 " clip-rule="nonzero"/></clipPath><clipPath id="515dee80e3"><path d="M 85 83 L 263 83 L 263 247 L 85 247 Z M 85 83 " clip-rule="nonzero"/></clipPath><clipPath id="46995389d3"><path d="M 236.09375 62.992188 L 276.015625 193.582031 L 89.453125 250.609375 L 49.535156 120.019531 Z M 236.09375 62.992188 " clip-rule="nonzero"/></clipPath><clipPath id="8883414b9c"><path d="M 236.09375 62.992188 L 276.015625 193.582031 L 89.453125 250.609375 L 49.535156 120.019531 Z M 236.09375 62.992188 " clip-rule="nonzero"/></clipPath><clipPath id="47ce0086bb"><path d="M 167 190 L 375 190 L 375 333 L 167 333 Z M 167 190 " clip-rule="nonzero"/></clipPath><clipPath id="3e5cdbf9c9"><path d="M 386.808594 213.859375 L 356.234375 363.917969 L 165.078125 324.96875 L 195.652344 174.910156 Z M 386.808594 213.859375 " clip-rule="nonzero"/></clipPath><clipPath id="b3df2488b9"><path d="M 386.808594 213.859375 L 356.234375 363.917969 L 165.078125 324.96875 L 195.652344 174.910156 Z M 386.808594 213.859375 " clip-rule="nonzero"/></clipPath></defs><g clip-path="url(#3c6b697f51)"><g clip-path="url(#32ce207234)"><g clip-path="url(#64a32824a3)"><path fill="#ffffff" d="M 132.453125 96.636719 C 133.363281 96.449219 134.269531 96.253906 135.175781 96.058594 C 136.09375 95.859375 136.960938 95.617188 137.863281 95.34375 C 139.773438 94.773438 140.980469 94.195312 142.71875 92.929688 C 146.230469 90.367188 147.847656 85.503906 147.121094 81.308594 C 146.53125 77.878906 144.464844 74.921875 141.667969 72.90625 C 141.386719 72.703125 141.089844 72.507812 140.777344 72.316406 C 142.585938 71.519531 144.273438 70.242188 145.28125 68.695312 C 146.832031 66.324219 147.789062 63.394531 147.195312 60.535156 C 146.636719 57.851562 145.25 54.855469 142.777344 53.414062 C 134.859375 48.8125 126.523438 45.1875 117.59375 43.101562 C 112.734375 41.96875 107.875 41.019531 102.894531 40.609375 C 98.03125 40.207031 93.144531 40.28125 88.277344 40.578125 C 84.136719 40.828125 79.988281 41.363281 75.945312 42.308594 C 73.09375 42.972656 70.253906 43.796875 67.515625 44.832031 C 64.738281 45.882812 62.253906 47.332031 59.726562 48.894531 C 58.878906 49.421875 58.050781 49.972656 57.261719 50.578125 C 54.328125 52.828125 52.222656 56.121094 51.914062 59.851562 C 51.644531 63.132812 52.777344 66.722656 55.0625 69.121094 C 57.300781 71.46875 59.335938 72.746094 62.285156 74.136719 C 65.097656 75.457031 68.296875 75.957031 71.328125 76.5 C 73.460938 76.886719 75.597656 77.242188 77.734375 77.585938 C 84.769531 78.71875 91.828125 79.722656 98.839844 81.003906 C 97.960938 81.191406 97.082031 81.382812 96.207031 81.578125 C 83.332031 84.460938 70.382812 88.074219 58.523438 93.960938 C 54.660156 95.878906 50.949219 98.074219 47.316406 100.394531 C 45.800781 101.359375 44.234375 102.328125 42.898438 103.539062 C 41.621094 104.691406 40.304688 105.941406 39.367188 107.402344 C 37.691406 110.003906 37.09375 111.835938 36.542969 114.835938 C 36.355469 116.273438 36.523438 117.652344 37.039062 118.976562 C 37.335938 120.378906 37.960938 121.632812 38.921875 122.742188 C 39.597656 123.507812 40.367188 124.214844 41.207031 124.820312 C 38.785156 125.320312 36.371094 125.855469 33.96875 126.441406 C 29.140625 127.621094 24.347656 129 19.652344 130.621094 C 15.191406 132.160156 10.539062 133.84375 6.804688 136.808594 C 5.496094 137.847656 4.316406 139.109375 3.292969 140.417969 C 1.582031 142.605469 0.8125 145.003906 0.320312 147.671875 C 0.0351562 149.207031 0.109375 150.847656 0.457031 152.363281 C 1.039062 154.90625 1.671875 156.261719 3.152344 158.40625 C 3.945312 159.558594 5.058594 160.492188 6.097656 161.40625 C 7.425781 162.574219 9.09375 163.332031 10.652344 164.125 C 11.730469 164.671875 12.851562 165.144531 13.980469 165.574219 C 16.148438 166.398438 18.375 167.054688 20.617188 167.640625 C 25.65625 168.957031 30.746094 170.027344 35.691406 171.683594 C 38.984375 172.785156 42.210938 174.070312 45.363281 175.519531 C 43.417969 176.941406 41.507812 178.417969 39.636719 179.953125 C 38.296875 181.050781 36.976562 182.171875 35.679688 183.320312 C 34.421875 184.4375 33.25 185.664062 32.132812 186.921875 C 30.980469 188.21875 30.179688 189.785156 29.441406 191.34375 C 28.8125 192.679688 28.550781 194.195312 28.285156 195.628906 C 28.027344 197.011719 28.179688 198.46875 28.265625 199.855469 C 28.296875 200.40625 28.375 200.9375 28.511719 201.472656 C 28.863281 202.835938 29.238281 204.253906 29.816406 205.550781 C 30.441406 206.941406 31.320312 208.246094 32.132812 209.519531 C 32.5 210.097656 32.894531 210.652344 33.320312 211.1875 C 34.167969 212.25 35.113281 213.234375 36.09375 214.175781 C 37.011719 215.394531 38.15625 216.296875 39.527344 216.878906 C 40.75 217.675781 42.105469 218.117188 43.589844 218.199219 C 46.210938 218.445312 49.492188 217.59375 51.496094 215.820312 C 53.648438 213.917969 55.375 211.28125 55.523438 208.324219 C 55.488281 207.390625 55.457031 206.457031 55.425781 205.523438 C 55.105469 203.625 54.34375 201.921875 53.140625 200.417969 C 52.542969 199.84375 51.960938 199.253906 51.402344 198.640625 C 51.941406 198.191406 52.480469 197.75 53.015625 197.308594 C 54.765625 195.863281 56.554688 194.457031 58.371094 193.09375 C 62.003906 190.371094 65.769531 187.824219 69.640625 185.453125 C 69.515625 185.527344 69.394531 185.601562 69.273438 185.675781 C 70.667969 184.789062 71.769531 183.914062 73.03125 182.265625 C 73.140625 182.128906 73.242188 181.996094 73.339844 181.851562 C 73.792969 181.175781 74.523438 179.839844 74.808594 179.085938 C 75.09375 178.328125 75.394531 176.945312 75.5 176.136719 C 75.640625 175.0625 75.609375 173.960938 75.433594 172.878906 C 74.867188 169.398438 72.746094 166.464844 69.878906 164.480469 C 69.046875 163.902344 68.199219 163.34375 67.347656 162.796875 C 63.160156 160.109375 58.753906 157.722656 54.269531 155.582031 C 50.605469 153.832031 46.832031 152.3125 42.980469 151.035156 C 40.300781 150.148438 37.578125 149.417969 34.84375 148.734375 C 49.027344 145.011719 63.667969 143.359375 77.9375 140 C 83.207031 138.761719 88.429688 137.277344 93.550781 135.535156 C 95.351562 134.726562 96.832031 133.519531 97.988281 131.917969 C 99.136719 130.308594 99.808594 128.523438 100 126.558594 C 100.347656 122.84375 98.671875 118.71875 95.484375 116.636719 C 90.371094 113.296875 84.757812 110.726562 78.875 109.09375 C 81.285156 108.207031 83.722656 107.390625 86.179688 106.632812 C 101.359375 102.246094 117.011719 99.863281 132.457031 96.636719 Z M 56.800781 167.839844 C 57.394531 167.476562 57.984375 167.117188 58.578125 166.753906 C 57.980469 167.121094 57.378906 167.488281 56.785156 167.859375 C 56.789062 167.851562 56.796875 167.847656 56.800781 167.839844 Z M 56.800781 167.839844 " fill-opacity="1" fill-rule="nonzero"/></g></g></g><g clip-path="url(#515dee80e3)"><g clip-path="url(#46995389d3)"><g clip-path="url(#8883414b9c)"><path fill="#ffffff" d="M 121.707031 240.34375 C 123.296875 239.835938 124.769531 239.265625 126.269531 238.449219 C 126.925781 238.09375 127.421875 237.605469 128.007812 237.117188 C 129.335938 236.007812 130.125 235.191406 131.007812 233.511719 C 131.925781 231.773438 132.4375 229.671875 132.375 227.699219 C 132.339844 226.574219 132.148438 225.226562 131.800781 224.152344 C 131.296875 222.597656 130.476562 221.089844 129.59375 219.714844 C 127.90625 217.089844 125.953125 214.65625 124.015625 212.21875 C 133.109375 213.398438 142.019531 215.6875 151.238281 216.003906 C 152.160156 215.851562 153.082031 215.699219 154.003906 215.546875 C 154.855469 215.15625 155.707031 214.769531 156.554688 214.378906 C 158.484375 213.152344 159.863281 211.3125 160.660156 209.203125 C 161.085938 208.390625 161.292969 207.523438 161.269531 206.601562 C 161.484375 205.683594 161.453125 204.769531 161.179688 203.867188 C 161.148438 202.90625 160.878906 202.019531 160.367188 201.207031 C 159.902344 199.894531 159.125 198.773438 158.042969 197.851562 C 154.878906 194.066406 151.710938 190.28125 148.542969 186.496094 C 148.648438 186.523438 148.75 186.546875 148.855469 186.574219 C 155.980469 188.40625 163.042969 190.488281 170.023438 192.8125 C 173.601562 194.003906 177.160156 195.261719 180.691406 196.578125 C 184.394531 197.996094 188.070312 199.484375 191.714844 201.039062 C 192.921875 201.738281 194.207031 202.101562 195.570312 202.125 C 196.953125 202.386719 198.328125 202.28125 199.6875 201.808594 C 200.539062 201.417969 201.386719 201.027344 202.238281 200.636719 C 203.445312 199.929688 204.398438 198.984375 205.09375 197.804688 C 206.355469 196.023438 207.253906 193.753906 207.089844 191.511719 C 206.882812 188.625 205.769531 186.191406 203.726562 184.109375 C 202.800781 183.167969 201.863281 182.246094 200.90625 181.34375 C 201.996094 181.714844 203.082031 182.089844 204.167969 182.464844 C 210.445312 184.636719 216.699219 186.871094 222.953125 189.109375 C 223.851562 189.199219 224.753906 189.292969 225.652344 189.386719 C 226.574219 189.234375 227.5 189.082031 228.421875 188.929688 C 229.273438 188.539062 230.121094 188.148438 230.972656 187.757812 C 232.179688 187.050781 233.132812 186.109375 233.828125 184.929688 C 234.441406 184.253906 234.859375 183.472656 235.074219 182.585938 C 235.503906 181.769531 235.707031 180.902344 235.683594 179.984375 C 235.914062 177.757812 235.539062 175.1875 234.199219 173.3125 C 228.25 165 221.042969 157.742188 213.050781 151.40625 C 218.949219 153.324219 224.835938 155.296875 230.703125 157.316406 C 236.925781 159.457031 243.128906 161.660156 249.316406 163.914062 C 250.214844 164.007812 251.113281 164.101562 252.015625 164.191406 C 252.9375 164.039062 253.859375 163.890625 254.785156 163.738281 C 255.632812 163.347656 256.484375 162.957031 257.335938 162.566406 C 258.542969 161.859375 259.496094 160.914062 260.191406 159.734375 C 260.804688 159.0625 261.222656 158.277344 261.4375 157.390625 C 261.867188 156.578125 262.070312 155.710938 262.046875 154.789062 C 262.273438 152.613281 261.929688 149.925781 260.5625 148.121094 C 257.429688 143.988281 254.089844 140.042969 250.566406 136.277344 C 252.027344 135.304688 253.304688 133.976562 254.007812 132.503906 C 255.175781 130.0625 255.707031 127.164062 254.773438 124.535156 C 254.386719 123.683594 253.996094 122.832031 253.605469 121.984375 C 252.609375 120.433594 251.304688 119.222656 249.679688 118.355469 C 240.761719 112.671875 231.820312 107.007812 222.554688 101.898438 C 212.664062 96.445312 202.382812 91.730469 191.648438 88.171875 C 186.042969 86.308594 180.308594 84.855469 174.476562 83.902344 C 171.800781 83.46875 168.78125 83.632812 166.457031 85.253906 C 164.558594 86.578125 163.179688 88.25 162.355469 90.425781 C 161.570312 92.511719 161.292969 94.984375 162.0625 97.148438 C 163 99.785156 164.660156 101.953125 167.15625 103.328125 C 179.078125 109.882812 190.996094 116.480469 202.441406 123.855469 C 204.605469 125.253906 206.75 126.675781 208.871094 128.132812 C 200.445312 125.441406 191.980469 122.839844 183.453125 120.5 C 176.453125 118.574219 169.203125 117.179688 161.910156 117.257812 C 156.46875 117.316406 151.300781 122.433594 151.738281 128.007812 C 151.941406 130.59375 152.574219 132.660156 153.792969 134.941406 C 154.53125 136.316406 155.632812 137.515625 156.738281 138.605469 C 158.371094 140.226562 160.425781 141.425781 162.347656 142.675781 C 164.875 144.328125 167.429688 145.945312 169.984375 147.550781 C 172.371094 149.046875 174.761719 150.53125 177.144531 152.027344 C 171.613281 150.496094 166.042969 149.09375 160.433594 147.871094 C 153.964844 146.457031 147.441406 145.289062 140.878906 144.410156 C 139.503906 144.03125 138.144531 144.015625 136.792969 144.363281 C 135.375 144.46875 134.0625 144.9375 132.859375 145.757812 C 130.957031 147.085938 129.578125 148.757812 128.757812 150.933594 C 127.96875 153.019531 127.695312 155.492188 128.460938 157.65625 C 128.9375 158.988281 129.617188 160.273438 130.511719 161.371094 C 127.042969 161.035156 123.464844 161.109375 120.234375 162.484375 C 118.429688 163.039062 116.882812 164.011719 115.601562 165.394531 C 114.367188 166.742188 113.539062 168.304688 113.109375 170.078125 C 112.679688 171.917969 112.738281 173.742188 113.285156 175.546875 C 113.84375 177.351562 114.8125 178.898438 116.195312 180.179688 C 119.34375 183.941406 122.492188 187.707031 125.640625 191.46875 C 123.660156 191.242188 121.667969 191.074219 119.664062 191.003906 C 117.410156 190.925781 115.152344 190.992188 112.914062 191.273438 C 108.359375 191.839844 103.644531 192.539062 100.304688 196.054688 C 97.957031 198.523438 96.601562 201.964844 96.8125 205.390625 C 96.996094 208.339844 98.003906 210.519531 99.304688 213.144531 C 100.394531 215.339844 101.746094 217.394531 103.195312 219.371094 C 104.136719 220.648438 105.113281 221.894531 106.101562 223.132812 C 105.921875 223.183594 105.746094 223.230469 105.566406 223.277344 C 101.433594 224.394531 97.269531 225.390625 93.078125 226.273438 C 90.59375 226.800781 88.054688 229.199219 86.898438 231.367188 C 85.695312 233.632812 85.257812 236.882812 86.132812 239.339844 C 87.039062 241.890625 88.710938 244.316406 91.226562 245.519531 C 92.058594 245.835938 92.894531 246.148438 93.730469 246.464844 C 95.566406 246.894531 97.386719 246.832031 99.199219 246.289062 C 106.792969 244.683594 114.308594 242.703125 121.707031 240.34375 Z M 121.707031 240.34375 " fill-opacity="1" fill-rule="nonzero"/></g></g></g><g clip-path="url(#47ce0086bb)"><g clip-path="url(#3e5cdbf9c9)"><g clip-path="url(#b3df2488b9)"><path fill="#ffffff" d="M 184.257812 327.109375 C 189.484375 325.886719 194.714844 324.660156 199.941406 323.433594 C 202.351562 322.867188 204.855469 322.445312 207.210938 321.671875 C 210.1875 320.695312 212.527344 319.125 214.761719 316.980469 C 215.792969 315.992188 216.5625 314.699219 217.316406 313.503906 C 218.191406 312.105469 218.695312 310.398438 219.109375 308.851562 C 219.144531 308.71875 219.175781 308.585938 219.207031 308.453125 C 220.238281 309.382812 221.277344 310.304688 222.328125 311.214844 C 226.953125 315.238281 231.800781 318.925781 236.953125 322.257812 C 242.050781 325.554688 247.542969 327.910156 253.363281 329.636719 C 254.585938 329.996094 255.824219 330.304688 257.074219 330.550781 C 257.691406 330.671875 258.304688 330.777344 258.929688 330.835938 C 260.617188 330.996094 262.382812 331.214844 264.089844 331.101562 C 264.394531 331.082031 264.699219 331.039062 265.003906 330.988281 C 266.285156 330.777344 267.628906 330.5625 268.878906 330.183594 C 270.394531 329.722656 271.890625 329 273.175781 328.085938 C 276.847656 325.476562 279.507812 321.648438 280.355469 317.183594 C 280.753906 315.082031 280.761719 313.011719 280.542969 310.964844 C 281.710938 312.804688 282.882812 314.640625 284.070312 316.46875 C 285.734375 319.03125 287.324219 321.738281 289.269531 324.097656 C 290.320312 325.375 291.441406 326.828125 292.738281 327.933594 C 293.765625 328.8125 294.957031 329.546875 296.085938 330.28125 C 296.453125 330.523438 296.824219 330.734375 297.226562 330.910156 C 300.203125 332.195312 302.164062 332.527344 305.34375 332.609375 C 305.636719 332.613281 305.921875 332.617188 306.214844 332.578125 C 307.515625 332.414062 308.933594 332.160156 310.1875 331.769531 C 313.066406 330.875 315.984375 328.863281 317.921875 326.566406 C 318.925781 325.378906 319.804688 324.035156 320.589844 322.695312 C 320.910156 322.140625 321.175781 321.558594 321.40625 320.964844 C 322.042969 319.320312 322.671875 317.625 323.09375 315.894531 C 323.148438 315.941406 323.199219 315.992188 323.25 316.039062 C 323.347656 316.125 323.445312 316.203125 323.542969 316.28125 C 324.421875 316.964844 325.597656 317.8125 326.574219 318.34375 C 327.722656 318.96875 329.070312 319.316406 330.304688 319.707031 C 330.539062 319.78125 330.761719 319.847656 331.007812 319.890625 C 333.71875 320.367188 335.992188 320.21875 338.617188 319.433594 C 339.949219 319.035156 341.269531 318.351562 342.453125 317.648438 C 342.652344 317.527344 342.839844 317.398438 343.027344 317.253906 C 344.003906 316.5 345.007812 315.640625 345.886719 314.769531 C 346.59375 314.070312 347.125 313.175781 347.675781 312.367188 C 348.261719 311.511719 348.871094 310.6875 349.335938 309.757812 C 350.296875 307.832031 350.996094 305.730469 351.503906 303.644531 C 352.203125 300.78125 352.480469 297.75 352.882812 294.832031 C 353.316406 291.6875 353.679688 288.535156 353.898438 285.371094 C 353.902344 285.28125 353.910156 285.195312 353.917969 285.105469 C 353.96875 285.136719 354.023438 285.171875 354.078125 285.203125 C 355.398438 286.28125 356.921875 286.964844 358.644531 287.246094 C 361.886719 287.757812 365.433594 287.382812 368.167969 285.398438 C 370.769531 283.515625 373.191406 280.667969 373.597656 277.355469 C 374.078125 273.445312 374.332031 269.457031 374.15625 265.515625 C 373.976562 261.59375 373.257812 257.78125 372.453125 253.945312 C 371.0625 247.335938 368.410156 241.164062 365.207031 235.234375 C 361.96875 229.238281 357.664062 223.824219 352.910156 218.960938 C 348.226562 214.167969 342.679688 210.09375 336.839844 206.828125 C 333.054688 204.714844 329.078125 203.222656 324.984375 201.828125 C 321.894531 200.773438 318.730469 199.996094 315.5 199.539062 C 314.371094 199.464844 313.238281 199.386719 312.105469 199.3125 C 311.03125 199.527344 309.960938 199.742188 308.882812 199.960938 C 307.914062 200.433594 306.945312 200.914062 305.972656 201.390625 C 304.535156 202.265625 303.40625 203.425781 302.59375 204.863281 C 301.832031 205.71875 301.335938 206.703125 301.105469 207.824219 C 300.585938 208.863281 300.359375 209.964844 300.433594 211.125 C 300.277344 211.902344 300.261719 212.664062 300.386719 213.421875 C 297.65625 210.246094 294.738281 207.21875 291.542969 204.527344 C 288.929688 202.320312 286.113281 200.375 283.257812 198.5 C 281.21875 197.164062 279.09375 195.964844 276.886719 194.929688 C 273.726562 193.449219 270.390625 192.28125 267.054688 191.296875 C 266.511719 191.136719 265.964844 190.988281 265.417969 190.847656 C 265.125 190.773438 264.828125 190.6875 264.527344 190.628906 C 263.964844 190.589844 263.398438 190.554688 262.832031 190.515625 C 261.710938 190.289062 260.609375 190.359375 259.527344 190.722656 C 258.414062 190.804688 257.390625 191.148438 256.460938 191.761719 C 255.875 191.976562 255.328125 192.257812 254.816406 192.597656 C 254.394531 192.882812 253.242188 193.957031 253.425781 193.796875 C 252.894531 194.257812 252.472656 194.542969 252.0625 195.007812 C 251.289062 195.882812 250.511719 197.125 249.960938 198.15625 C 249.355469 199.285156 248.941406 200.589844 248.71875 201.871094 C 248.625 202.414062 248.582031 203.886719 248.589844 203.78125 C 248.546875 204.433594 248.421875 205.222656 248.492188 205.921875 C 248.832031 209.144531 249.882812 212.023438 251.632812 214.746094 C 252.363281 215.882812 253.152344 216.988281 253.9375 218.085938 C 255.539062 220.324219 257.21875 222.507812 258.941406 224.65625 C 262.984375 229.6875 267.253906 234.53125 271.492188 239.402344 C 272.027344 240.015625 272.558594 240.632812 273.09375 241.25 C 279.828125 249.121094 286.253906 257.28125 291.03125 266.507812 C 293.890625 272.632812 296.058594 279.058594 297.515625 285.660156 C 297.882812 287.6875 298.183594 289.726562 298.414062 291.773438 C 298.292969 291.582031 298.175781 291.394531 298.058594 291.207031 C 294.003906 284.738281 289.96875 278.257812 285.738281 271.902344 C 281.566406 265.636719 277.203125 259.484375 272.4375 253.652344 C 267.210938 247.257812 261.675781 241.070312 255.429688 235.652344 C 251.558594 232.289062 247.410156 229.316406 243.136719 226.488281 C 239.671875 224.191406 236.039062 222.164062 232.265625 220.414062 C 229.347656 219.0625 225.53125 218.511719 222.441406 219.71875 C 221.46875 220.195312 220.5 220.671875 219.53125 221.148438 C 218.089844 222.023438 216.960938 223.183594 216.148438 224.621094 C 215.386719 225.476562 214.890625 226.460938 214.660156 227.582031 C 213.953125 229.160156 213.691406 230.824219 213.875 232.582031 L 214.519531 235.804688 C 215.246094 237.894531 216.429688 239.683594 218.070312 241.167969 C 218.773438 241.941406 219.472656 242.71875 220.164062 243.503906 C 227.3125 251.949219 233.65625 261.066406 239.082031 270.710938 C 240.410156 273.070312 241.679688 275.460938 242.898438 277.875 C 246.632812 285.664062 249.804688 293.71875 252.351562 301.972656 C 250.921875 301.191406 249.523438 300.347656 248.15625 299.457031 C 241.800781 294.902344 236.085938 289.519531 230.292969 284.285156 C 223.351562 278.011719 216.136719 271.925781 207.972656 267.277344 C 205.972656 266.136719 203.90625 265.113281 201.773438 264.246094 C 198.660156 262.984375 195.441406 261.863281 192.167969 261.078125 C 191.039062 261.003906 189.90625 260.925781 188.777344 260.851562 C 187.082031 260.90625 185.523438 261.359375 184.097656 262.210938 C 183.050781 262.574219 182.160156 263.167969 181.417969 263.988281 C 180.074219 264.960938 179.046875 266.21875 178.332031 267.757812 C 177.390625 269.839844 176.933594 272.074219 176.988281 274.363281 C 177.042969 276.058594 177.496094 277.617188 178.347656 279.039062 C 178.949219 280.570312 179.894531 281.875 181.183594 282.949219 C 182.703125 284.558594 184.207031 286.179688 185.679688 287.835938 C 188.214844 290.871094 190.570312 294.0625 192.460938 297.535156 C 192.6875 298.054688 192.902344 298.582031 193.101562 299.113281 C 191.625 299.457031 190.148438 299.804688 188.671875 300.148438 C 184.480469 301.132812 180.285156 302.117188 176.09375 303.101562 C 174.488281 303.585938 173.105469 304.414062 171.957031 305.589844 C 170.613281 306.566406 169.585938 307.820312 168.871094 309.359375 C 168.015625 310.90625 167.605469 312.542969 167.640625 314.269531 C 167.378906 315.9375 167.554688 317.578125 168.171875 319.1875 C 169.34375 322.1875 171.414062 325.042969 174.433594 326.410156 C 175.503906 326.78125 176.574219 327.152344 177.644531 327.527344 C 179.890625 327.976562 182.09375 327.835938 184.261719 327.109375 Z M 322.09375 251.605469 C 322.433594 252.242188 322.765625 252.878906 323.09375 253.519531 C 325.253906 258.109375 327.058594 262.859375 328.21875 267.796875 C 328.257812 268.03125 328.292969 268.261719 328.328125 268.492188 C 327.597656 266.457031 326.867188 264.421875 326.132812 262.386719 C 324.832031 258.777344 323.496094 255.175781 322.09375 251.605469 Z M 322.09375 251.605469 " fill-opacity="1" fill-rule="nonzero"/></g></g></g></svg>